<?xml version="1.0" standalone="no"?>
<!DOCTYPE svg PUBLIC "-//W3C//DTD SVG 20010904//EN"
 "http://www.w3.org/TR/2001/REC-SVG-20010904/DTD/svg10.dtd">
<svg version="1.0" xmlns="http://www.w3.org/2000/svg"
 width="520.000000pt" height="520.000000pt" viewBox="0 0 520.000000 520.000000"
 preserveAspectRatio="xMidYMid meet">
<metadata>
Created by potrace 1.16, written by Peter Selinger 2001-2019
</metadata>
<g transform="translate(0.000000,520.000000) scale(0.100000,-0.100000)"
fill="#000000" stroke="none">
<path d="M0 4689 l0 -511 438 2 c240 1 445 2 455 1 12 -1 17 -10 17 -35 0 -33
-1 -34 -48 -38 -61 -6 -740 0 -809 7 l-53 5 0 -443 0 -444 167 -6 c207 -9 331
-9 362 0 l23 6 -23 13 c-23 13 -22 13 19 14 23 0 43 0 45 1 44 12 166 29 209
29 31 0 60 5 63 10 20 32 61 -31 80 -120 12 -55 31 -84 73 -112 27 -18 50 -48
76 -97 28 -53 51 -82 91 -112 37 -28 66 -61 89 -102 37 -67 85 -132 154 -207
l42 -48 -24 -78 c-32 -102 -79 -282 -121 -464 -19 -80 -50 -212 -69 -295 -20
-82 -36 -161 -36 -174 0 -30 -26 -168 -45 -241 -30 -113 -45 -182 -45 -205 0
-31 47 -179 73 -230 22 -44 85 -125 97 -125 4 0 10 24 13 53 3 28 10 65 16 80
11 27 13 28 58 20 27 -4 74 -7 106 -7 48 2 57 -1 57 -16 0 -16 54 -73 91 -96
29 -18 39 -50 27 -86 -6 -18 -13 -55 -17 -83 l-6 -50 -130 -6 c-753 -36 -1200
-53 -1219 -46 -14 6 -15 10 -4 29 7 13 15 25 18 28 3 3 18 35 34 72 30 72 29
91 -8 243 -24 96 -41 284 -27 298 14 14 14 97 0 134 -14 37 -39 166 -44 226
-4 44 -3 47 20 47 31 0 106 58 124 95 37 77 51 241 27 311 -9 26 -16 73 -16
103 0 55 -24 238 -32 247 -3 2 -42 -10 -89 -26 -46 -16 -94 -30 -106 -30 -27
0 -55 47 -46 78 3 14 1 22 -7 22 -7 0 -9 8 -5 20 4 11 3 35 -1 53 -6 28 -8 29
-14 12 -5 -11 -6 -30 -3 -42 4 -18 -1 -25 -22 -33 -34 -13 -30 -38 9 -60 31
-17 46 -44 38 -72 -7 -27 -39 -22 -46 7 -4 14 -11 25 -16 25 -6 0 -19 9 -30
20 -16 16 -20 33 -20 79 l0 60 35 -6 c23 -4 35 -2 35 6 0 6 -4 11 -9 11 -4 0
-22 13 -39 30 -18 16 -36 30 -41 30 -4 0 -9 -96 -10 -214 -1 -206 -1 -215 18
-221 14 -4 22 -18 26 -43 5 -34 18 -90 32 -136 4 -16 -2 -13 -33 12 -53 44
-59 28 -7 -17 41 -35 43 -39 43 -94 0 -32 5 -68 11 -79 9 -18 8 -24 -7 -35
-25 -18 -34 -1 -34 70 0 44 -5 62 -20 77 -11 11 -22 20 -25 20 -3 0 -5 -53 -5
-118 0 -87 4 -127 15 -150 9 -17 20 -50 24 -74 5 -24 10 -34 11 -23 l1 20 9
-20 c11 -26 12 -106 2 -123 -7 -10 -15 -8 -35 8 -30 24 -36 17 -10 -12 15 -17
15 -19 0 -36 -28 -31 -20 -48 9 -21 l27 24 -7 -35 c-3 -19 -16 -48 -27 -64
-12 -16 -17 -31 -12 -35 6 -3 13 -21 16 -39 5 -24 3 -34 -8 -38 -13 -5 -15
-42 -14 -243 0 -130 4 -227 8 -217 6 17 11 15 38 -18 19 -24 29 -45 26 -57 -5
-17 5 -24 30 -20 4 1 15 -5 23 -14 14 -13 13 -15 -10 -15 -26 0 -35 -14 -16
-25 21 -13 -3 -25 -51 -25 l-49 0 0 -65 0 -64 118 5 c611 29 707 31 719 16 10
-13 36 -14 165 -8 84 4 214 7 288 7 91 -1 143 4 160 12 17 9 55 12 123 9 83
-4 98 -7 95 -20 -3 -18 -22 -22 -173 -42 -49 -7 -112 -18 -140 -26 -107 -30
-170 -33 -726 -39 -316 -3 -586 -8 -601 -11 l-28 -6 0 -104 0 -104 2600 0
2600 0 0 2600 0 2600 -2600 0 -2600 0 0 -511z m1401 347 c1 -6 1 -15 0 -19 -1
-5 8 -16 21 -26 l22 -18 -17 -89 c-9 -49 -19 -99 -23 -111 -5 -19 -2 -23 15
-23 26 0 26 -5 1 -37 -11 -14 -20 -35 -20 -46 0 -39 -72 -135 -123 -164 -97
-57 -112 -63 -129 -59 -13 3 -18 -2 -18 -15 0 -10 6 -19 14 -19 8 0 17 -8 20
-17 9 -28 6 -148 -5 -268 -9 -85 -8 -122 2 -163 9 -38 10 -59 2 -70 -14 -23
-115 -50 -190 -51 l-63 -1 0 84 c0 110 25 296 55 416 13 53 22 106 18 118 -10
39 17 144 56 222 21 41 44 100 51 130 27 116 41 159 56 171 28 23 36 -3 24
-73 -6 -35 -10 -82 -8 -104 l3 -39 27 55 c15 30 39 92 53 138 22 65 31 82 46
82 27 0 32 -20 16 -61 -20 -49 -31 -113 -18 -104 6 3 11 14 11 23 1 9 9 35 20
57 11 22 19 45 20 50 0 6 7 20 15 32 16 22 44 22 46 -1z m2029 -827 c-19 -5
-71 -8 -115 -8 -44 0 -114 -4 -155 -11 -41 -6 -111 -10 -155 -9 -163 4 -401
-3 -417 -12 -10 -5 -34 -10 -55 -11 -63 -1 -175 3 -171 8 7 7 100 22 178 29
182 17 948 29 890 14z m-1310 -34 c58 -2 125 -4 150 -4 26 -1 40 -5 35 -10
-11 -10 -203 -19 -525 -26 -113 -2 -221 -8 -240 -11 -19 -4 -39 -6 -45 -4 -5
1 -72 2 -147 1 -75 -1 -139 2 -141 6 -3 5 -3 21 0 37 l6 29 401 -8 c221 -4
448 -8 506 -10z m502 -567 c35 -13 60 -75 52 -127 -6 -39 -6 -39 -63 -45 -32
-4 -67 -14 -80 -22 -20 -14 -22 -23 -19 -86 2 -71 -9 -94 -40 -83 -22 8 -64
-6 -58 -20 6 -17 -13 -35 -37 -35 -13 0 -17 5 -13 15 4 13 2 14 -14 5 -11 -6
-20 -18 -20 -28 -1 -9 -6 -30 -13 -46 -12 -28 -13 -28 -30 -11 -17 16 -17 19
-1 42 13 21 14 27 3 34 -8 5 -20 9 -26 9 -7 0 -13 10 -14 23 0 12 -2 31 -4 41
-2 11 2 31 10 45 12 24 19 26 81 29 103 3 126 10 122 34 -5 36 -49 60 -107 60
-47 -1 -51 1 -46 19 4 12 1 21 -9 25 -9 3 -16 14 -16 23 0 20 93 115 103 105
4 -4 7 -2 7 4 0 14 191 6 232 -10z m1512 -134 c8 -10 42 -20 97 -28 l84 -12 0
-205 c0 -112 4 -217 7 -234 4 -16 12 -102 18 -190 6 -88 20 -249 30 -358 11
-109 27 -307 35 -440 8 -133 22 -277 31 -320 8 -43 12 -83 8 -89 -4 -6 -6 -83
-6 -172 1 -88 -5 -246 -13 -351 -7 -104 -17 -251 -21 -326 l-6 -136 -142 -8
c-77 -3 -240 -8 -361 -10 -121 -3 -281 -9 -355 -15 -74 -5 -159 -10 -187 -10
-51 0 -53 1 -53 28 0 51 -19 95 -73 166 -50 67 -54 76 -65 156 -8 54 -9 97 -3
117 10 33 2 83 -17 120 -7 12 -12 30 -12 40 0 10 13 -11 28 -47 27 -63 29 -65
76 -77 88 -22 173 5 255 82 25 23 56 47 68 54 22 11 34 42 47 123 4 23 22 56
46 83 38 43 60 96 60 141 0 12 -27 74 -59 138 -44 84 -61 131 -66 173 -17 147
-74 451 -100 533 -8 25 -21 68 -30 95 -26 87 -46 108 -141 157 -103 53 -290
115 -384 127 -36 5 -91 21 -123 36 l-57 27 29 41 c27 38 30 51 35 147 4 79 9
106 21 113 10 5 13 16 9 34 -5 17 -3 24 4 19 7 -4 9 7 6 36 -7 56 -7 55 7 110
9 35 10 57 2 83 -10 30 -9 35 6 35 9 0 29 -14 44 -31 25 -28 31 -31 70 -24 82
12 143 14 195 5 75 -13 112 -4 112 27 0 25 1 25 65 21 47 -3 70 -9 87 -25 51
-46 62 -48 288 -48 118 -1 220 -4 226 -7 6 -4 17 1 26 10 8 9 25 25 37 34 11
10 21 26 21 37 0 11 6 22 13 24 26 11 70 6 81 -9z m-2496 -134 c19 -25 30 -30
65 -30 23 -1 61 -5 84 -9 27 -5 46 -4 53 3 5 5 65 13 133 17 l122 6 22 -26
c12 -14 20 -31 18 -38 -2 -7 0 -15 6 -19 6 -3 8 -12 5 -19 -2 -7 1 -16 8 -18
16 -6 27 -65 14 -73 -5 -4 -19 3 -31 13 -46 42 -117 83 -141 83 -47 0 -130
-39 -170 -80 -44 -45 -44 -45 -93 -25 -19 8 -57 15 -82 15 -45 0 -48 2 -65 39
-9 23 -32 49 -51 61 -33 20 -53 55 -41 68 4 3 -4 12 -16 19 -21 11 -20 12 23
13 25 0 54 7 65 15 29 22 48 18 72 -15z m983 -11 c9 0 6 -4 -6 -10 -14 -6 -4
-8 33 -4 43 5 54 3 59 -11 3 -9 1 -19 -5 -23 -6 -3 -14 -20 -18 -36 -3 -17
-16 -40 -26 -52 -11 -12 -17 -27 -13 -33 4 -7 -7 -4 -24 4 -30 16 -55 57 -80
135 -11 34 -7 56 9 46 5 -3 12 0 15 5 5 8 13 6 24 -4 10 -9 24 -16 32 -17z
m-221 -658 c15 -19 112 -93 159 -120 48 -29 91 -35 77 -12 -3 5 1 11 8 14 8 3
16 2 18 -2 2 -4 17 -14 33 -22 l30 -14 7 -205 c8 -227 25 -580 37 -765 7 -117
7 -121 -17 -152 -23 -32 -24 -34 -8 -72 11 -30 12 -41 3 -44 -9 -3 -9 -7 0
-18 7 -8 10 -25 6 -37 -3 -14 1 -30 11 -41 13 -14 14 -24 7 -44 -8 -21 -7 -28
7 -36 10 -6 12 -11 5 -11 -18 0 -16 -27 2 -34 23 -8 18 -28 -7 -24 -11 2 -23
-3 -25 -9 -3 -7 2 -13 11 -13 19 0 17 -20 -3 -36 -19 -15 -7 -46 37 -90 l37
-37 -45 30 c-48 32 -97 52 -86 35 3 -5 -1 -15 -9 -22 -8 -7 -12 -16 -9 -21 10
-16 -9 -9 -42 16 -40 30 -48 31 -41 4 5 -17 2 -20 -13 -16 -14 3 -17 1 -13
-11 5 -11 2 -14 -10 -9 -20 7 -22 -4 -5 -21 9 -9 8 -12 -5 -12 -10 0 -20 7
-23 15 -11 27 -100 38 -115 13 -4 -7 -28 -8 -63 -4 -51 7 -56 6 -56 -12 0 -11
9 -22 19 -25 13 -3 18 -11 15 -23 -4 -15 6 -23 53 -42 33 -12 65 -22 73 -22
20 0 110 -42 110 -52 0 -4 -8 -8 -17 -8 -17 0 -226 48 -388 89 -142 36 -265
49 -502 51 -26 0 -31 4 -30 20 1 11 4 20 8 20 3 0 4 32 1 71 -3 48 -1 78 9 95
11 21 11 27 0 34 -26 15 9 269 44 324 7 11 21 50 30 86 40 158 90 321 120 390
18 41 38 91 44 111 11 33 32 70 157 269 102 163 114 179 129 174 12 -5 15 3
15 34 0 42 30 92 56 92 8 0 14 9 14 20 0 11 5 20 10 20 6 0 10 7 10 15 0 8 9
19 21 26 15 8 20 18 16 35 -2 13 0 24 4 24 5 0 9 7 9 16 0 12 7 14 33 9 17 -4
34 -10 37 -14z m1996 -2222 c-3 -17 -6 -38 -6 -45 0 -21 -319 -20 -360 1 -31
16 -39 38 -17 52 10 7 126 14 331 21 l59 2 -7 -31z"/>
</g>
</svg>
